<svg height="512" viewBox="0 0 512 512" width="512" xmlns="http://www.w3.org/2000/svg"><g id="flat"><path d="m336 488h144l-3.554-24.879a60 60 0 0 0 -32.564-45.18l-147.882-73.941h-80l-147.882 73.941a60 60 0 0 0 -32.564 45.18l-3.554 24.879h144" fill="#48351b"/><path d="m424 488v-32a8 8 0 0 1 16 0v32z" fill="#332613"/><path d="m216 344-64 32 24 48 40-32z" fill="#5f4623"/><path d="m208 488h-32l-24-72 56-24z" fill="#6e5129"/><path d="m296 344 64 32-24 48-40-32z" fill="#5f4623"/><path d="m304 488h32l24-72-56-24z" fill="#6e5129"/><path d="m296 312v19.64c-.08.06-.17.11-.25.17a70.9 70.9 0 0 1 -79.75-.17v-19.64z" fill="#e6af89"/><path d="m216 312v32l-8 24 48 48 48-48-8-24v-32z" fill="#fdc9a6"/><path d="m296 312v19.64c-.08.06-.17.11-.25.17a70.9 70.9 0 0 1 -79.75-.17v-19.64z" fill="#e6af89"/><path d="m304 368-48 48-48-48v120h96z" fill="#026ca2"/><path d="m72 488v-32a8 8 0 0 1 16 0v32z" fill="#332613"/><path d="m152 200v-72.022a57.888 57.888 0 0 1 16.955-40.933l14.09-14.09a57.888 57.888 0 0 1 40.933-16.955h44.245a57.889 57.889 0 0 1 51.777 32 44.846 44.846 0 0 1 37.313 19.969 16 16 0 0 1 2.687 8.875v83.156z" fill="#55300b"/><path d="m256 328a70.9 70.9 0 0 1 -65.827-44.567 198.156 198.156 0 0 1 -14.173-73.596v-57.837l24-40.73h112l24 40.73v57.837a198.156 198.156 0 0 1 -14.173 73.6 70.9 70.9 0 0 1 -65.827 44.563z" fill="#fdc9a6"/><g fill="#55300b"><path d="m304 184h-24a8 8 0 0 1 0-16h24a8 8 0 0 1 0 16z"/><circle cx="290" cy="202" r="10"/><path d="m232 184h-24a8 8 0 0 1 0-16h24a8 8 0 0 1 0 16z"/><circle cx="222" cy="202" r="10"/></g><path d="m272 280h-32a8 8 0 0 1 0-16h32a8 8 0 0 1 0 16z" fill="#e6af89"/><path d="m264 248h-16a8 8 0 0 1 -8-8v-24a8 8 0 0 1 16 0v16h8a8 8 0 0 1 0 16z" fill="#e6af89"/><path d="m176 176h-11.056a20.944 20.944 0 0 0 -20.944 20.944v14.112a20.944 20.944 0 0 0 2.211 9.366 20.944 20.944 0 0 0 18.733 11.578h19.056z" fill="#fdc9a6"/><path d="m336 176h11.056a20.944 20.944 0 0 1 20.944 20.944v14.112a20.944 20.944 0 0 1 -2.211 9.366 20.944 20.944 0 0 1 -18.733 11.578h-19.056z" fill="#fdc9a6"/></g></svg>